<?xml version="1.0" encoding="UTF-8"?>
<svg width="480px" height="657px" viewBox="0 0 480 657" version="1.1" xmlns="http://www.w3.org/2000/svg" xmlns:xlink="http://www.w3.org/1999/xlink">
    <!-- Generator: Sketch 51.3 (57544) - http://www.bohemiancoding.com/sketch -->
    <title>Combined Shape@3x</title>
    <desc>Created with Sketch.</desc>
    <defs></defs>
    <g id="Main" stroke="none" stroke-width="1" fill="none" fill-rule="evenodd">
        <g id="Lion" transform="translate(-100.000000, -13.000000)" fill="#252525">
            <path d="M281.953705,334.506249 C283.101308,337.423758 285.926106,344.479714 285.926106,351.524374 C285.926106,359.564699 284.346516,362.675172 285.352133,363.119089 C286.71096,363.718925 291.079677,351.099828 291.079677,353.496836 C291.079677,357.5415 289.171735,366.006832 284.897534,375.386783 C280.623334,384.766733 277.553787,389.561561 272.092812,395.053612 C266.631837,400.545664 264.411698,402.762518 260.171958,405.673541 C255.932218,408.584563 254.61922,409.024962 249.068022,412.387006 C243.516823,415.74905 238.086963,418.637813 234.374562,421.29755 C230.66216,423.957286 227.53763,425.854065 221.394786,432.925419 C215.251942,439.996773 212.060331,445.866149 210.005235,449.350376 C207.950139,452.834602 205.245398,457.510226 202.57927,467.828682 C199.913143,478.147138 198.833351,482.399753 200.223722,487.206827 C203.091013,486.85655 210.672252,481.415603 216.873485,479.891422 C217.124912,481.024081 214.814593,485.493336 214.342883,491.777265 C213.871174,498.061194 213.880235,506.306214 214.342883,513.603091 C214.805532,520.899969 215.040518,525.842812 217.933635,535.35951 C220.826753,544.876208 221.752701,546.445526 226.774772,554.496879 C231.796842,562.548231 239.837048,575.000951 241.89696,573.777361 C243.226151,569.587778 233.004678,544.134089 231.814477,538.611825 C230.624276,533.08956 227.837747,524.570645 228.188715,510.897436 C228.539682,497.224226 229.812892,495.429626 233.270802,481.875365 C236.728712,468.321103 237.243181,463.973675 243.556592,450.658672 C249.870004,437.343669 256.274461,429.908415 260.171958,425.140747 C264.069455,420.37308 269.696608,417.496167 278.442043,407.081341 C287.187478,396.666516 287.312119,395.225655 295.908109,382.583028 C304.504099,369.940401 306.374324,371.752301 313.636448,355.318865 C320.898572,338.88543 322.912355,327.745415 321.388566,324.92339 C320.340816,323.458977 314.657348,335.111126 307.553177,344.052774 C300.449005,352.994422 298.645666,355.794927 294.610868,358.627074 C293.424599,355.911145 293.169745,350.104663 290.371496,344.052774 C287.853663,338.607349 282.391573,330.703587 281.801208,329.813009 C281.421848,329.240736 281.128763,328.702634 281.038197,328.605433 C280.241648,326.841031 278.849822,325.210161 276.996722,322.0724 C274.731838,318.237387 271.977953,315.513888 268.205657,307.343414 C264.433362,299.172939 262.810742,294.801162 261.717945,288.979857 C260.625147,283.158552 258.581186,273.561539 261.717945,269.876269 C265.71648,269.876269 274.061989,272.905745 276.996722,273.561539 C279.931454,274.217334 286.519496,275.88469 293.601516,272.080622 C300.683537,268.276554 301.637508,263.621817 303.960808,259.077931 C306.284108,254.534045 317.666196,241.365779 320.68273,237.099088 C317.875791,234.787353 302.822677,241.299442 294.669087,244.800804 C286.515496,248.302166 285.247418,250.42674 282.209032,251.972266 C280.363953,250.101231 282.72362,241.872237 286.228269,236.241244 C289.732919,230.61025 292.945297,228.597047 300.244203,222.994778 C307.543109,217.39251 314.061412,212.008324 322.519086,208.386262 C318.584828,206.592362 296.757081,209.311347 291.492675,208.386262 C286.228269,207.461177 281.479556,206.143458 278.07072,201.630166 C274.661884,197.116874 273.747992,194.486765 273.523553,186.59419 C273.299115,178.701615 275.711084,168.253855 276.996722,163.862079 C278.282359,159.470303 280.41886,156.853925 284.548665,151.294113 C288.678469,145.7343 289.256408,144.5546 294.669087,140.070389 C300.081766,135.586177 306.850105,132.621615 311.61584,128.869921 C311.813257,128.34458 308.19814,127.771902 304.976028,128.869921 C301.753916,129.96794 298.33387,132.988801 291.492675,135.727417 C284.65148,138.466033 278.07072,140.864037 276.996722,140.070389 C278.07072,136.870262 283.813798,130.629567 291.492675,124.045534 C299.171552,117.461501 302.770445,117.048089 305.944045,115.250336 C304.263045,114.061213 298.766911,115.270337 291.492675,116.296374 C284.218439,117.32241 278.561559,118.343469 274.929659,119.546742 C271.297758,120.750015 269.486272,121.169318 264.58132,124.824636 C259.676368,128.479954 257.755729,130.687057 254.695326,134.625975 C254.333903,132.60162 255.20086,129.854244 256.71448,126.211671 C258.2281,122.569098 261.219319,120.660532 261.219319,118.925786 C258.712763,118.171427 253.463596,120.414181 249.764888,121.588687 C246.06618,122.763194 243.552704,123.143801 237.868578,126.935887 C232.184451,130.727974 229.307936,134.193073 225.991338,137.448884 C222.67474,140.704695 219.941316,143.025702 215.912313,151.294113 C211.88331,159.562523 210.783789,166.759311 210.55581,169.126019 C210.327831,171.492728 210.010522,174.321442 211.387938,177.965923 C212.765354,181.610404 215.369763,185.164635 219.343154,192.376292 C223.316544,199.587948 223.020946,203.307407 226.810576,205.957827 C228.173137,205.261019 230.324311,201.157357 233.85027,198.016062 C237.37623,194.874767 246.332357,189.463857 248.771823,186.59419 C251.211289,183.724523 252.418061,180.470493 252.655706,173.901568 C252.893352,167.332642 248.770778,158.813903 249.764888,159.144208 C251.081202,159.581569 257.538123,170.853714 257.276555,175.4369 C257.014986,180.020086 257.1454,182.966841 254.695326,186.59419 C252.245252,190.221539 246.450742,195.204426 242.5204,198.016062 C238.590057,200.827698 237.90983,201.347441 235.845338,203.168468 C233.544678,205.197813 231.738748,207.581068 229.419522,209.549335 C222.818955,215.151064 223.418458,214.2937 217.485161,219.262816 C211.551863,224.231933 212.717886,224.277838 207.752964,227.695003 C202.788042,231.112169 195.37817,234.811116 192.816594,236.241244 C190.255017,237.671372 188.468331,239.094624 185.125442,243.572066 C181.782553,248.049509 180.225153,252.06133 175.005516,259.500289 C169.78588,266.939249 170.128344,266.415089 165.017291,272.811645 C159.906238,279.208201 158.978276,280.156909 152.834391,287.247772 C146.690505,294.338635 148.289886,292.847465 143.79043,297.310272 C139.290974,301.773079 136.888447,302.623028 130.291481,308.792432 C123.694515,314.961837 121.895523,317.611948 118.961883,320.623202 C116.028244,323.634456 114.688465,324.63075 111.139452,329.953248 C107.590438,335.275746 106.331092,338.926 105.97301,340.102771 C105.614929,341.279542 105.371396,342.987667 106.204965,344.05493 C107.038533,345.122193 108.11636,345.019914 109.996147,344.469201 C111.875935,343.918489 113.945809,342.54358 118.475452,341.317426 C123.005094,340.091273 123.894083,339.713145 129.293641,339.713145 C134.693199,339.713145 136.263655,339.906907 137.811107,341.317426 C136.503924,342.507294 133.47612,342.797569 129.293641,345.058609 C125.111161,347.31965 123.972546,348.420519 121.654044,350.051903 C119.335543,351.683287 117.036309,353.359992 114.632724,359.138511 C112.229139,364.917029 112.528537,367.408374 112.528537,371.99076 C112.528537,376.573147 112.507033,379.051711 114.632724,383.381474 C116.758415,387.711238 118.407445,389.965511 122.938502,394.455163 C127.46956,398.944816 128.245469,398.866094 133.7657,402.339613 C139.28593,405.813132 139.902796,406.455859 146.266746,409.134096 C152.630695,411.812333 161.096537,415.491691 165.017291,415.491691 C168.938044,415.491691 173.525896,416.0067 180.145685,415.146406 C186.765474,414.286113 193.480903,411.997819 196.191905,411.997819 C196.632668,412.476701 192.515278,415.37474 188.553537,416.769598 C184.591796,418.164455 180.548259,418.75287 175.699541,419.212811 C170.850824,419.672752 168.560147,420.261634 161.516867,419.212811 C154.473587,418.163988 151.686604,417.203573 141.969524,414.190036 C132.252443,411.176499 130.924306,409.134096 125.186049,407.945614 C122.675361,408.45728 123.335599,412.755028 123.264641,418.001998 C123.193683,423.248968 123.052796,423.872362 124.579514,428.691676 C126.106233,433.510989 129.695627,442.281778 133.250992,449.713526 C134.611439,451.502588 135.542979,443.882426 136.923079,445.354788 C140.089382,449.664035 139.453402,455.431146 144.392264,461.860741 C149.331126,468.290336 155.842115,473.39934 161.516867,477.141162 C163.782601,475.249887 164.855192,470.238292 167.750807,462.845478 C170.646422,455.452665 172.435155,447.146491 175.005516,442.703198 C175.699541,443.745695 176.399688,447.86482 176.762894,453.12954 C177.126099,458.394259 175.859889,464.05386 177.576889,463.28687 C180.324395,460.996517 181.888566,453.350384 187.86362,448.170802 C193.838674,442.991221 202.637604,438.715539 217.485161,428.691676 C232.332717,418.667812 231.592059,419.222943 245.335416,408.465048 C259.078773,397.707153 263.576264,395.738871 269.61564,387.885471 C275.655016,380.03207 277.435246,377.437844 280.197574,363.918069 C282.241215,353.915798 282.314121,341.324012 281.953705,334.506249 Z M244.669176,21.5381715 C244.628316,21.3845723 244.684473,21.221521 244.811251,21.125659 C244.983546,20.9953807 245.228829,21.0294414 245.359108,21.2017357 L245.379279,21.2283495 L276.824421,65.2347699 C276.912796,65.3584478 277.040222,65.4487852 277.186182,65.4912363 C277.545202,65.5956544 277.920893,65.3892584 278.025311,65.030238 L284.673108,42.1731336 C284.717648,42.0199916 284.814824,41.8874909 284.947505,41.7989913 C285.258556,41.5915161 285.678905,41.675481 285.88638,41.9865322 L299.056113,61.730875 C299.131474,61.8438584 299.239075,61.9315643 299.364933,61.9825962 C299.71143,62.1230905 300.106215,61.9560923 300.246709,61.6095954 L319.702734,13.6257788 C319.771959,13.4550519 319.907771,13.3199093 320.078838,13.2515289 C320.426025,13.1127481 320.819979,13.2816946 320.95876,13.6288814 L340.136642,61.6060402 C340.187122,61.7323273 340.274469,61.8404827 340.387301,61.9164148 C340.697497,62.1251665 341.118187,62.0429296 341.326939,61.7327336 L354.624886,41.9725569 C354.713047,41.8415539 354.844227,41.7454888 354.995731,41.7009826 C355.354469,41.5955983 355.730714,41.8009822 355.836098,42.1597202 L362.557346,65.0394929 C362.599874,65.1842613 362.689545,65.3106739 362.812121,65.3986595 C363.115868,65.616689 363.538851,65.5472017 363.75688,65.2434552 L394.294261,22.7004933 C394.4593,22.4705697 394.749946,22.3675705 395.022936,22.4422651 C395.383588,22.5409453 395.595958,22.9133076 395.497278,23.2739595 L395.497257,23.2739539 C386.57772,55.872662 381.868909,74.2507956 381.370824,78.4083547 C380.880684,82.4995932 380.85583,90.9814192 381.29626,103.853833 C381.297051,103.876974 381.297447,103.900128 381.297447,103.923283 C381.297447,105.044977 380.388135,105.95429 379.266441,105.95429 L261.040188,105.954283 C261.017304,105.954283 260.994423,105.953896 260.971553,105.953123 C259.850506,105.915217 258.972447,104.9757 259.010348,103.854653 C259.450737,90.8303384 259.426206,82.3482388 258.936753,78.4083547 C258.426713,74.3027608 253.811375,55.904804 244.669176,21.5381715 Z M358.4715,90.041 C361.649623,90.041 364.226,87.4646226 364.226,84.2865 C364.226,81.1083774 361.649623,78.532 358.4715,78.532 C355.293377,78.532 352.717,81.1083774 352.717,84.2865 C352.717,87.4646226 355.293377,90.041 358.4715,90.041 Z M320.5595,90.041 C323.737623,90.041 326.314,87.4646226 326.314,84.2865 C326.314,81.1083774 323.737623,78.532 320.5595,78.532 C317.381377,78.532 314.805,81.1083774 314.805,84.2865 C314.805,87.4646226 317.381377,90.041 320.5595,90.041 Z M282.6475,90.041 C285.825623,90.041 288.402,87.4646226 288.402,84.2865 C288.402,81.1083774 285.825623,78.532 282.6475,78.532 C279.469377,78.532 276.893,81.1083774 276.893,84.2865 C276.893,87.4646226 279.469377,90.041 282.6475,90.041 Z M222.123987,209.920829 C216.155985,196.454288 204.37156,186.834776 202.84803,166.398049 C201.522787,150.859722 208.484902,141.344069 222.123987,129.350836 C235.763071,117.357602 254.057404,116.109777 266.58162,114.806306 C279.105836,113.502834 277.153884,113.201159 289.73195,110.664228 C302.310016,108.127296 316.603144,109.412884 332.359357,109.412884 C348.115569,109.412884 365.040489,113.677809 380.134706,117.91076 C395.228924,122.14371 429.010397,136.476709 437.390482,146.233984 C437.390482,147.490958 421.988604,143.205348 415.903334,142.826843 C409.818064,142.448338 402.251799,142.550681 403.695016,144.13812 C406.558761,146.662134 415.903334,149.977779 423.727409,151.43278 C431.551484,152.887782 451.508506,155.166646 473.389763,166.398049 C488.12801,174.627116 493.746053,181.556174 501.719344,190.275281 C509.692635,198.994388 519.762119,215.632948 519.762119,221.106641 C516.531016,221.513345 495.708832,220.895897 496.750294,223.06266 C509.295261,227.630906 520.411721,235.764363 535.470203,249.685038 C550.528685,263.605713 553.334993,268.68947 561.744784,283.146217 C570.154575,297.602964 574.394987,313.688198 577.560022,329.700191 C580.725056,345.712183 578.923547,352.392364 577.560022,363.155921 C576.196497,373.919478 568.134592,398.412244 567.146083,398.059142 C565.721462,396.712157 566.484107,370.337456 561.744784,357.016347 C557.005461,343.695238 547.091504,337.228856 536.580793,327.95501 C526.070082,318.681163 513.400915,312.327236 512.827969,313.855894 C515.284286,317.298066 527.776344,326.962457 536.580793,339.968835 C545.385241,352.975213 546.327758,354.343242 550.430023,369.403558 C554.532288,384.463873 553.784724,391.183219 553.334993,401.47718 C552.885262,411.771142 551.733029,421.269497 544.582853,437.934137 C537.432677,454.598778 534.936814,460.557141 523.426249,473.533861 C515.752539,482.185007 503.986459,492.393718 488.12801,504.159993 C473.661044,514.13944 461.454543,523.68888 451.508506,532.808313 C436.58945,546.487462 429.50804,554.941061 423.727409,563.208331 C420.861104,567.307627 413.766386,579.437308 407.77731,592.059154 C401.788234,604.681 396.708885,618.213637 394.489741,621.558351 C392.417774,616.794834 394.248637,581.631603 391.863554,572.438125 C387.865496,570.922488 380.141761,580.781224 373.413957,593.101638 C366.686153,605.422051 366.666551,610.565353 365.040489,621.558351 C363.414427,632.551349 364.928036,640.820574 365.596994,650.548446 C366.265952,660.276318 371.251287,671.420691 368.340476,669.546193 C362.549168,665.81672 355.548252,653.634578 348.192756,639.340505 C340.837261,625.046432 340.129933,621.558351 336.875272,608.399266 C333.62061,595.240182 332.817974,590.977544 333.848619,572.438125 C334.879263,553.898705 340.84756,545.458829 346.893284,537.016386 C352.939009,528.573944 356.789182,524.790068 368.340476,511.668962 C379.891771,498.547856 382.814302,497.2131 391.863554,485.934693 C400.912807,474.656285 400.17614,475.258058 408.426148,461.708756 C416.676156,448.159453 419.102744,443.632758 423.727409,433.603472 C428.352074,423.574186 432.726068,410.901077 431.148294,412.432338 C428.81403,414.697788 425.548892,426.257018 415.903334,441.196893 C406.257776,456.136768 406.710726,455.504763 394.489741,469.212276 C382.268756,482.919789 385.763587,479.506887 368.340476,494.545171 C350.917366,509.583455 340.784344,514.97647 332.359357,522.838429 C323.934369,530.700388 321.914332,534.86185 316.603144,546.425424 C311.291956,557.988999 310.747831,565.729404 309.934468,571.406987 C309.121106,577.084569 309.951609,587.74858 310.36368,593.101638 C310.775752,598.454696 312.852997,610.483714 316.603144,626.325806 C320.353291,642.167898 327.453505,655.894971 325.612272,657.517677 C323.262045,658.925054 311.540326,652.549663 297.730378,641.19391 C283.92043,629.838157 283.052051,628.210222 272.735291,614.037577 C262.418531,599.864932 260.041831,589.05054 255.511312,582.969231 C252.236941,584.589512 252.580339,592.650151 251.448831,592.059154 C240.69987,584.907103 235.342642,580.025307 226.133853,567.11492 C216.925064,554.204534 216.940395,552.566129 212.187632,537.016386 C207.434869,521.466644 209.005753,512.8324 206.529685,503.773813 C202.84803,503.35097 193.980986,512.088222 193.111119,510.579129 C192.247361,500.927676 194.097101,476.550232 195.29426,467.177517 C196.491418,457.804802 202.84803,451.280251 200.946979,449.231137 C198.96852,447.561983 195.362027,449.50371 187.447089,460.557141 C179.532151,471.610573 177.79344,483.944153 174.664972,485.934693 C173.88532,485.050561 174.582245,480.898256 174.311096,473.723256 C174.220754,471.332694 173.880983,465.269458 172.902417,465.626799 C170.414128,466.497135 169.857283,468.029551 166.265588,476.537359 C162.673894,485.045166 162.716488,493.061646 160.759425,493.649179 C157.158307,487.671469 148.843371,478.19072 144.345748,471.084135 C139.848126,463.977551 139.079142,458.963607 136.374666,455.814087 C135.155748,455.306469 133.611459,461.708756 132.445937,461.708756 C130.132146,457.503135 129.329212,450.530923 126.990657,443.954786 C124.652102,437.378648 123.239377,438.218212 121.584736,431.166499 C119.930096,424.114785 120.509105,420.168286 120.509105,416.331839 C120.509105,412.495391 121.541987,402.4559 120.509105,398.059142 C118.160989,394.460823 113.23971,389.947302 111.535915,386.349907 C109.83212,382.752512 109.865936,377.110544 108.647341,373.919478 C107.428747,370.728412 101.993454,363.970538 100.938995,360.578979 C100.332591,350.371754 100.502936,343.996578 100.938995,339.968835 C102.836948,332.788793 111.950077,323.229321 116.229591,318.164442 C120.509105,313.099564 121.84595,313.581569 134.006939,301.553979 C146.167927,289.52639 147.079933,289.681051 157.921735,276.929637 C168.763537,264.178222 174.113214,255.392444 178.108146,249.685038 C182.103078,243.977633 184.14341,240.419868 186.268591,238.193084 C191.507968,232.255198 192.252829,232.110471 202.84803,225.710475 C213.544035,219.083015 220.02203,213.45753 222.123987,209.920829 Z M362.555685,198.147753 C366.475535,197.614963 371.714259,193.626637 377.719793,191.553733 C383.725327,189.480829 402.034834,184.086803 417.363613,185.13946 C453.014843,187.5877 481.286673,204.934878 485.985483,205.818781 C481.076593,196.316286 469.323477,190.138264 460.796893,185.13946 C452.270309,180.140656 431.57002,174.107298 420.275287,173.331667 C393.229096,171.474351 362.157907,194.145111 362.555685,198.147753 Z M356.332835,260.049783 C358.602146,260.619311 365.243316,261.621622 367.692042,262.499183 C370.140768,263.376743 373.384721,264.974404 376.652001,265.834082 C380.398472,263.081766 386.206915,257.668658 390.124758,254.442601 C394.042601,251.216545 403.782439,243.30541 405.364832,240.814237 C404.555874,238.085961 392.490361,240.167166 378.723172,245.568116 C364.955984,250.969066 361.171621,254.09738 356.332835,260.049783 Z M284.583005,190.207382 C284.927308,193.286576 291.302528,179.2055 293.067123,178.660782 C293.590187,181.17743 291.517572,194.217469 293.904632,196.934779 C295.371586,198.604686 296.603755,191.485598 301.233745,187.435216 C305.863735,183.384835 312.489823,179.622227 316.838904,177.626448 C321.187985,175.630669 324.88985,172.722573 333.786286,171.127637 C342.682722,169.532702 349.833933,171.127637 353.088811,171.127637 C354.635727,169.952022 347.785866,166.383245 341.272171,165.438559 C334.758477,164.493873 331.410633,164.676747 325.09652,165.438559 C318.782407,166.200372 316.78647,166.763635 311.747138,169.254339 C306.707805,171.745042 302.289821,177.626448 299.767285,178.660782 C297.744341,177.241322 303.011465,165.857977 304.033728,163.841993 C305.055991,161.826008 306.938714,158.223417 311.747138,154.05748 C316.555561,149.891542 327.249456,142.740706 330.275983,141.106143 C333.30251,139.471579 336.77091,137.284593 345.569814,135.598607 C354.368719,133.912621 361.149086,135.102041 362.520101,133.787855 C364.593502,131.800398 346.280547,131.11262 340.701656,131.11262 C335.122764,131.11262 323.698006,130.323689 311.747138,136.632638 C299.796269,142.941587 296.852021,145.36259 290.701885,157.507857 C284.551749,169.653124 283.744689,182.710114 284.583005,190.207382 Z M381.990142,211.186479 C382.763927,212.818245 391.60212,212.254575 397.557364,214.911601 C401.600306,216.700944 406.9465,218.78386 410.781538,226.934209 C414.616575,235.084557 415.832804,239.292744 415.20725,247.137846 C414.581697,254.982948 413.491687,256.781371 410.042301,261.537049 C406.592916,266.292727 401.818313,271.377171 393.038787,277.701576 C384.25926,284.025981 372.291739,289.155434 367.854066,291.927697 C372.339912,294.617565 380.210641,296.097549 391.923192,304.470452 C403.635743,312.843355 402.227263,312.09327 411.669053,323.249536 C421.110842,334.405802 429.429058,348.903563 433.334448,353.401321 C434.754327,353.980159 433.909677,340.253648 428.327216,329.033584 C422.744756,317.813521 417.524292,311.624106 408.989254,304.470452 C400.454215,297.316797 391.601968,294.526558 386.497273,291.927697 C389.668745,289.041177 400.282831,287.593784 403.588455,285.81033 C406.894079,284.026876 417.668939,277.497429 423.545362,268.616679 C429.421786,259.73593 431.057427,251.516109 431.057427,249.326978 C431.057427,247.137846 431.255275,242.122126 429.429058,238.228187 C427.602842,234.334249 423.820318,225.260318 416.876598,219.09 C409.932878,212.919681 407.406273,212.261828 397.744881,210.073041 C388.083488,207.884255 382.607261,210.296538 381.990142,211.186479 Z M268.866074,276.146337 C267.893251,277.42799 275.737959,289.586144 278.393982,292.964298 C281.050006,296.342453 285.769703,299.834501 289.079482,304.522896 C294.441019,313.409845 294.622958,312.591128 297.104715,323.978041 C299.586471,335.364954 298.212017,343.465462 298.4582,347.55478 C300.064587,347.236213 303.131043,340.322557 304.341101,331.06439 C305.551158,321.806223 300.48457,308.970731 295.120191,301.834353 C296.120424,300.266052 302.015066,305.509361 310.745937,304.522896 C319.476808,303.536431 320.519562,302.090945 327.782029,298.144027 C335.044496,294.197109 342.361905,288.512335 341.060855,288.047711 C335.781913,288.92535 322.73937,294.515473 314.346818,296.041782 C305.954267,297.568091 302.843716,297.240548 297.104715,295.290488 C291.365714,293.340427 289.364764,293.147859 282.125857,288.047711 C274.886951,282.947562 269.759189,274.969696 268.866074,276.146337 Z M342.473781,450.182368 C346.105867,450.978274 369.57143,430.522122 377.411002,413.310953 C385.250573,396.099784 386.034514,370.858989 384.392134,362.7532 C382.749754,354.647411 383.730302,349.605956 370.758998,331.815116 C357.787694,314.024276 343.411571,305.436929 343.411571,306.546159 C343.411571,308.683155 352.363915,317.550357 359.686854,327.235689 C367.009792,336.921022 369.240415,342.656436 370.758998,346.413996 C374.301906,355.180513 374.012469,360.511769 372.436201,378.364263 C370.859934,396.216758 368.709331,402.186001 365.090773,410.611197 C363.449517,414.432583 359.46786,423.681555 354.417355,431.657241 C349.36685,439.632928 341.272731,449.485163 342.473781,450.182368 Z M346.211948,387.481734 C345.807154,385.805631 340.420477,399.288686 333.620407,407.550415 C326.820336,415.812145 325.16853,416.33126 316.432342,423.662397 C307.696153,430.993534 302.273219,433.354839 288.580248,445.346711 C274.887276,457.338584 270.335462,460.462399 266.267399,467.595271 C262.199337,474.728142 259.129329,478.870053 254.170912,493.400751 C249.212496,507.93145 248.727764,508.559696 246.321342,526.047427 C243.914919,543.535158 244.305786,541.962994 245.444058,556.819738 C246.58233,571.676483 246.91935,575.645926 249.59167,580.378451 C250.348035,581.20248 252.300845,576.498474 253.429568,570.961619 C254.55829,565.424765 254.609588,559.132442 255.202503,556.819738 C256.190289,560.030874 260.287572,569.502357 266.267399,579.910143 C272.247227,590.317929 279.330468,603.081323 279.621034,599.319768 C280.000769,594.403858 269.857088,576.057323 267.608,562.555212 C265.358913,549.053101 264.187327,543.193141 264.187327,533.718055 C264.187327,527.40133 265.327551,519.952446 267.608,511.371401 C274.237007,491.817117 280.827319,477.225074 287.378935,467.595271 C297.20636,453.150565 298.897831,451.148809 311.136921,437.582438 C323.37601,424.016067 328.405455,422.385393 335.294733,414.483191 C342.18401,406.580989 346.644317,389.272018 346.211948,387.481734 Z M187.276868,304.303468 C187.329102,303.700049 194.80656,296.431104 200.554366,288.095488 C206.302172,279.759873 207.235036,273.651643 209.712117,271.792619 C210.520784,272.255367 208.46706,274.657983 209.712117,276.945069 C210.957174,279.232154 220.661883,279.953623 226.856191,278.952846 C233.050499,277.952068 246.857112,272.81307 247.448181,273.485821 C248.165051,274.210873 238.149629,281.835181 233.701645,284.966464 C229.253662,288.097747 225.433292,291.235844 218.322194,291.235844 C211.211097,291.235844 207.149936,284.705577 206.592266,284.966464 C205.892912,285.45851 204.532296,290.639589 199.689419,295.499605 C194.846543,300.35962 187.276868,305.157821 187.276868,304.303468 Z M181.665299,348.36686 C183.06266,345.676856 194.460674,344.856503 203.875787,340.938345 C213.290899,337.020187 220.832318,331.055594 222.290239,331.460536 C223.442932,331.7807 215.193392,338.441876 209.097014,342.388557 C205.032762,345.019678 200.725524,347.012446 196.175299,348.36686 C200.744716,355.939719 203.445577,362.510239 204.277881,368.078422 C205.526337,376.430697 197.654674,382.66037 196.175299,383.942511 C195.213244,384.776301 199.39502,374.966129 199.39502,372.310283 C199.39502,369.654437 199.694489,366.267325 194.569872,359.280982 C189.445255,352.294638 181.211054,349.29221 181.665299,348.36686 Z" id="Combined-Shape"></path>
        </g>
    </g>
</svg>